# xmcd
#
# Track frame offsets:
# 183
# 13660
# 25465
# 35660
# 44175
# 55265
# 71305
# 86505
# 98658
# 109760
# 122640
# 133733
# 145625
# 157878
# 168128
# 180455
# 191228
#
# Disc length: 2726 seconds
#
#
# Revision: 0
# Processed by: cddbd v1.5.1PL2 Copyright (c) Steve Scherf et al.
# Submitted via: FreeRIP 2.945 
#
DISCID=e40aa411
DTITLE=Pat Boone and Don Williams - 16 Great Songs
DYEAR=1900
DGENRE=Country
TTITLE0=Pat Boone - Indiana Girl
TTITLE1=Pat Boone - Texas Woman
TTITLE2=Pat Boone - Oklahoma Sunshine
TTITLE3=Pat Boone - Country Days And Country Nights
TTITLE4=Pat Boone - Trow It Away
TTITLE5=Pat Boone - Won't Be Home
TTITLE6=Pat Boone - It's Gone
TTITLE7=Pat Boone - Don't Want To Fall Away From You April
TTITLE8=Don Williams - There's Always Something There To Remind Me
TTITLE9=Don Williams - Where Do We Go From Here
TTITLE10=Don Williams - Storybook Children
TTITLE11=Don Williams - Follow Me Back To Louisville
TTITLE12=Don Williams - Comin' Apart
TTITLE13=Don Williams - Take My Hand For A While
TTITLE14=Don Williams - There's Never Been A Time
TTITLE15=Don Williams - Spend Some Time With Me
TTITLE16=Don Williams - Ruby Tuesday
EXTD=16 Tons CD 11018
EXTT0=
EXTT1=
EXTT2=
EXTT3=
EXTT4=
EXTT5=
EXTT6=
EXTT7=
EXTT8=
EXTT9=
EXTT10=
EXTT11=
EXTT12=
EXTT13=
EXTT14=
EXTT15=
EXTT16=
PLAYORDER=
